<?xml version="1.0" encoding="utf-8"?>
<!-- Uploaded to: SVG Repo, www.svgrepo.com, Generator: SVG Repo Mixer Tools -->
<svg width="800px" height="800px" viewBox="-42.55 0 317.994 317.994" xmlns="http://www.w3.org/2000/svg"><defs><style>.a{fill:#94d1e6;}.b{fill:#211715;}.c{fill:#ffffff;}.d{fill:#7a7473;}.e{fill:#6dbf6b;}</style></defs><path class="a" d="M226.323,125.091c-1.059-4.641-6.182-7.646-10.669-7.927-7.367-.462-15.6,4.695-17.239,11.677a.574.574,0,0,0,.518.683,50.735,50.735,0,0,1,16.06,4.2c5.529,2.313,12.715.064,11.461-7.95Q226.4,125.424,226.323,125.091Z"/><path class="a" d="M210.836,153.161c.262-2.918-2.165-5.651-4.739-6.67-4.224-1.671-10.027-.219-12.311,3.557a.353.353,0,0,0,.173.5,31.273,31.273,0,0,1,8.6,5.513c2.8,2.406,7.431,2.456,8.221-2.474C210.805,153.442,210.823,153.3,210.836,153.161Z"/><path class="a" d="M4.5,125.091c1.059-4.641,6.183-7.646,10.67-7.927,7.366-.462,15.6,4.695,17.238,11.677a.574.574,0,0,1-.518.683,50.735,50.735,0,0,0-16.06,4.2c-5.529,2.313-12.715.064-11.461-7.95Q4.422,125.424,4.5,125.091Z"/><path class="a" d="M20.276,153.971c-.563-2.875,1.569-5.845,4.023-7.124,4.029-2.1,9.951-1.257,12.614,2.263a.354.354,0,0,1-.121.514A31.24,31.24,0,0,0,28.807,156c-2.533,2.682-7.138,3.212-8.434-1.61C20.335,154.247,20.3,154.108,20.276,153.971Z"/><path class="b" d="M228.638,124.453c-1.446-5.761-7.321-9.317-12.984-9.689a20.384,20.384,0,0,0-15.536,6.312,17.562,17.562,0,0,0-2.414,3.184,10.643,10.643,0,0,0-1.689,4.581,3.056,3.056,0,0,0,.919,2.263,4.453,4.453,0,0,0,2.907.91,42.741,42.741,0,0,1,4.822.809,58.422,58.422,0,0,1,9.293,3.05,13.186,13.186,0,0,0,6.574,1.024,9.563,9.563,0,0,0,6.761-3.708c1.855-2.513,1.966-5.783,1.347-8.736-.634-3.021-5.262-1.743-4.629,1.276a7.206,7.206,0,0,1-.049,3.534,3.567,3.567,0,0,1-1.285,1.9c.289-.239-.235.16-.3.2-.211.125-.423.249-.645.353.343-.161-.275.1-.349.127-.283.09-.567.158-.855.228a5.16,5.16,0,0,1-1.3.113,8.521,8.521,0,0,1-1.231-.08,17.526,17.526,0,0,1-3.553-1.184c-1.645-.662-3.31-1.273-5-1.794a47,47,0,0,0-4.7-1.187c-.83-.164-1.664-.3-2.5-.423a14.835,14.835,0,0,1-2.964-.425l1.434,1.1-.191-.248.328,1.211c-.069-.9.872-2.295,1.361-3.046a13.518,13.518,0,0,1,2.564-2.834A16.259,16.259,0,0,1,212,119.809c4.587-.963,10.741.859,12.011,5.92C224.761,128.723,229.391,127.455,228.638,124.453Z"/><path class="b" d="M213.236,153.161c.277-4.335-3.3-8.056-7.243-9.24a13.584,13.584,0,0,0-10.8,1.456c-1.454.915-3.353,2.471-3.769,4.224a2.714,2.714,0,0,0,.759,2.58,5.634,5.634,0,0,0,1.657.929,29.082,29.082,0,0,1,2.707,1.454,34.468,34.468,0,0,1,4.387,3.253,9.072,9.072,0,0,0,4.187,2.081,6.767,6.767,0,0,0,5.145-.971,7.713,7.713,0,0,0,2.969-5.766,2.416,2.416,0,0,0-2.4-2.4,2.454,2.454,0,0,0-2.4,2.4c.06-.558-.045.2-.06.264-.05.222-.123.434-.182.654-.126.468.179-.234-.08.187a2.745,2.745,0,0,0-.243.412c-.087.236.287-.269-.01.016-.123.118-.254.236-.371.358.365-.382.128-.08-.059.006-.251.116-.464.1-.017.031a2.421,2.421,0,0,0-.389.118c-.5.174.16.035-.008.023a7.046,7.046,0,0,0-.919,0c.514-.039.209.033-.039-.023-.171-.038-.34-.084-.507-.136-.069-.022-.549-.193-.213-.064s-.216-.108-.283-.143a8.282,8.282,0,0,1-.851-.53c.523.363-.125-.121-.165-.155q-.27-.228-.541-.455c-.889-.738-1.8-1.452-2.743-2.124a28.871,28.871,0,0,0-2.487-1.591q-.731-.415-1.483-.788c-.261-.129-.525-.255-.789-.377-.072-.032-.8-.365-.5-.117l.617,1.059-.064-.182v1.276c-.1.422.052-.007.166-.158-.206.272-.008.021.107-.1a9.33,9.33,0,0,1,.873-.826c-.262.214,0,0,.137-.087.155-.1.31-.2.47-.3.194-.115.392-.224.592-.326.047-.024.581-.273.332-.165a16.993,16.993,0,0,1,2.137-.6c.695-.156-.428.014.282-.045.193-.016.385-.034.579-.044a11.733,11.733,0,0,1,1.272,0q.287.018.573.05c.273.032-.289-.067.153.033.407.093.808.18,1.2.31.177.057.356.115.527.189-.382-.165.3.17.3.172.181.1.357.208.529.322.078.051.454.33.223.146a5.611,5.611,0,0,1,1.562,1.83l.114.222q-.081-.237,0,0a5.022,5.022,0,0,1,.187.588c.013.052.088.732.069.333a6.611,6.611,0,0,1-.01.745,2.4,2.4,0,0,0,4.8,0Z"/><path class="b" d="M6.813,125.729c1.27-5.061,7.424-6.883,12.011-5.92a16.256,16.256,0,0,1,7.1,3.357,13.731,13.731,0,0,1,2.6,2.806c.521.779,1.527,2.238,1.454,3.186l.328-1.211-.191.248,1.434-1.1a13.247,13.247,0,0,1-2.748.395c-.91.127-1.816.275-2.717.453a46.98,46.98,0,0,0-4.7,1.187c-1.628.5-3.228,1.084-4.809,1.716a18.67,18.67,0,0,1-3.749,1.262,11.2,11.2,0,0,1-2.4-.007,9.719,9.719,0,0,1-1.389-.4c.117.053-.388-.214-.48-.269s-.674-.483-.407-.262a3.408,3.408,0,0,1-1.285-1.9,7.171,7.171,0,0,1-.049-3.534c.632-3.014-3.994-4.3-4.629-1.276a11.276,11.276,0,0,0,.923,8.113,9.075,9.075,0,0,0,5.3,3.982c5.415,1.583,10.359-1.714,15.406-3.131q2.159-.606,4.37-1c.781-.139,1.564-.26,2.352-.351,1.15-.134,2.468-.076,3.353-.96,2.214-2.214-.2-6.227-1.7-8.242a20.692,20.692,0,0,0-14.959-8.085c-6.307-.458-13.42,3.22-15.041,9.676C1.432,127.45,6.06,128.728,6.813,125.729Z"/><path class="b" d="M22.59,153.333c.068.4,0-.32,0-.349,0-.059.057-.661.02-.416a4.6,4.6,0,0,0,.143-.524c.03-.1.187-.53.066-.243a5,5,0,0,1,1.393-1.966c-.009.009.553-.489.278-.27a5.567,5.567,0,0,1,.5-.346q.255-.161.52-.3c.037-.02.676-.318.216-.123a10.1,10.1,0,0,1,2.341-.638c-.353.056-.045.01.14-.006s.374-.027.561-.034a11.662,11.662,0,0,1,1.348.03c.058,0,.654.075.35.032s.287.054.344.066a10.819,10.819,0,0,1,1.287.336c.174.057.346.121.517.185.251.094-.263-.147.127.06.349.186.7.362,1.03.579.148.1.3.2.436.3-.39-.3.086.093.163.165a7.951,7.951,0,0,1,.846.932l-.618-1.059.066.185v-1.276l-.046.187.618-1.059c.266-.267-.346.162-.419.205q-.367.217-.728.444-.693.436-1.361.911c-.913.648-1.8,1.342-2.646,2.075-.765.662-1.5,1.363-2.206,2.085-.343.348-.668.716-1.022,1.053-.131.125-.272.236-.406.357.424-.383.015-.022-.092.047a7.2,7.2,0,0,1-.925.5c.259-.12.308-.109.012-.026-.162.046-.329.087-.489.137-.514.159.154.031-.017.022-.133-.007-.273.021-.407.023-.163,0-.322-.016-.484-.022.655.026.192.023.009-.029-.322-.094-.335-.14-.029.024-.134-.072-.292-.177-.43-.234-.4-.169.258.3-.049-.036-.121-.131-.249-.253-.369-.385.276.305.056.065-.064-.135a5.1,5.1,0,0,1-.286-.549c.145.325.013,0-.038-.161-.081-.251-.144-.5-.2-.762a2.4,2.4,0,0,0-4.628,1.276c.737,3.438,3.558,6.171,7.221,5.76a8.746,8.746,0,0,0,4.659-2.059c1.39-1.152,2.544-2.58,3.93-3.75a19.437,19.437,0,0,1,2.045-1.53,16.551,16.551,0,0,0,2.813-1.851c2.162-2.228-.7-4.814-2.526-5.976a13.485,13.485,0,0,0-10.616-1.391c-4.715,1.336-8.378,5.765-7.526,10.8a2.418,2.418,0,0,0,2.952,1.676A2.454,2.454,0,0,0,22.59,153.333Z"/><path class="c" d="M169.905,90.254a8.148,8.148,0,0,1,6.521-1.908,7.693,7.693,0,0,1,5.533,3.678A10.863,10.863,0,0,1,183.1,96.4a32.6,32.6,0,0,1-3.324,17.284,20.728,20.728,0,0,1-5.359,7.033,13.748,13.748,0,0,1-6.389,2.88l-1.094.169c-.524,1.962-1.113,3.615-1.4,4.493-1.718,4.662-10.724,19.916-22.409,27.246.114.795.236,1.568.366,2.311.771,4.4.53,8.333,6.648,10.543.405.146,9.585,4.285,10.5,4.688,0,0-4.318,25.644-47.429,25.644S67.969,172.6,67.969,172.6c.749-.32,11.03-4.1,11.435-4.243,6.117-2.21,5.876-6.143,6.647-10.543.158-.9.3-1.892.436-2.938a51.269,51.269,0,0,1-11.43-10.334A55.433,55.433,0,0,1,64.49,123.919l-2.083-.321a13.751,13.751,0,0,1-6.39-2.88,20.738,20.738,0,0,1-5.358-7.033A32.608,32.608,0,0,1,47.334,96.4a10.9,10.9,0,0,1,1.139-4.377,7.7,7.7,0,0,1,5.533-3.678,8.15,8.15,0,0,1,6.522,1.908S50.1,43.877,114.539,43.877,169.905,90.254,169.905,90.254Z"/><path class="d" d="M160.293,74.327A83.086,83.086,0,0,1,169.628,90.3a8.093,8.093,0,0,1,6.8-2.173,7.285,7.285,0,0,1,1.419.358c4.054-10.41,4.648-25.491-.47-39.8-3.6-10.06-12.568-20.6-18.939-23.537l-9.2-6.614C141.4,7.8,129.554,2.139,112.836,1.628c-15.658-.479-33.7,2.683-47.411,16.485l4.414,4.455C61.757,27.756,55.431,37.477,52.5,46.1c-3.521,10.338-4.572,25.048-.392,42.428l.03.125a7.759,7.759,0,0,1,1.873-.527,8.058,8.058,0,0,1,6.977,2.358c15.773-15.076,29.51-24.026,43.369-34.913.08.923,3.033,8.305,3.724,8.586.941.382,11.259-6.1,18.454-10.533l11.325,2.98a42.272,42.272,0,0,1,13.278,7.776A62.889,62.889,0,0,1,160.293,74.327Z"/><path class="b" d="M85.005,141.867c-.068,3.746-.308,7.494-.709,11.219a58.648,58.648,0,0,1-1.371,8.717,5.278,5.278,0,0,1-1.493,2.7,8.259,8.259,0,0,1-2.845,1.606q-2.7,1-5.41,1.992c-1.948.719-3.929,1.387-5.846,2.187a2.479,2.479,0,0,0-1.676,2.952,2.415,2.415,0,0,0,2.952,1.677c3.687-1.539,7.509-2.8,11.257-4.179,3.012-1.113,5.72-2.808,7.041-5.855,1.265-2.916,1.5-6.379,1.917-9.5a120.5,120.5,0,0,0,.983-13.515c.057-3.09-4.743-3.09-4.8,0Z"/><path class="b" d="M139.733,143.06a106.285,106.285,0,0,0,.959,12.243c.384,2.843.6,6.06,1.6,8.767a11.058,11.058,0,0,0,6.81,6.457c1.171.462-.456-.225.277.1.362.162.725.32,1.088.482q1.515.673,3.028,1.353c1.975.886,3.945,1.783,5.924,2.657a2.477,2.477,0,0,0,3.284-.861,2.419,2.419,0,0,0-.861-3.284c-3.354-1.481-6.678-3.029-10.041-4.491-1.971-.858-3.826-1.58-4.761-3.435a5.684,5.684,0,0,1-.431-1.246c-.161-.6-.275-1.218-.377-1.834-.23-1.391-.448-2.787-.664-4.181a95.155,95.155,0,0,1-1.04-12.728c-.058-3.085-4.858-3.095-4.8,0Z"/><path class="b" d="M171.6,91.951a5.676,5.676,0,0,1,7.913.7c1.086,1.4,1.2,3.388,1.27,5.083a29.19,29.19,0,0,1-.35,6.215c-1.234,7.194-5.031,15.962-13.047,17.338a2.421,2.421,0,0,0-1.676,2.953,2.455,2.455,0,0,0,2.952,1.676c8.234-1.414,13.136-9.156,15.418-16.578a34.428,34.428,0,0,0,1.466-12.269c-.261-3.988-1.468-7.74-5.134-9.828a10.656,10.656,0,0,0-12.206,1.32,2.421,2.421,0,0,0,0,3.394,2.45,2.45,0,0,0,3.394,0Z"/><path class="b" d="M165.542,117.53a27.444,27.444,0,0,1-1.3,6.912c-.259.87-.545,1.732-.834,2.592-.078.233-.152.467-.237.7-.036.1-.08.191-.114.289-.173.5.139-.306.029-.066a58,58,0,0,1-3.607,6.6,64.989,64.989,0,0,1-14.512,16.739,27.631,27.631,0,0,1-10.751,5.439c-3.01.691-1.736,5.321,1.276,4.629,8.114-1.865,14.912-7.7,20.272-13.814a70.172,70.172,0,0,0,11.313-16.824,35.643,35.643,0,0,0,3.261-13.191c.1-3.089-4.7-3.086-4.8,0Z"/><path class="b" d="M62.225,88.557A10.615,10.615,0,0,0,51.3,86.638c-3.871,1.589-5.779,4.918-6.273,8.945a33.437,33.437,0,0,0,5.846,23.1,17.422,17.422,0,0,0,10.9,7.233,2.47,2.47,0,0,0,2.952-1.676,2.421,2.421,0,0,0-1.676-2.953C55.029,119.907,51.231,111.139,50,103.945a29.186,29.186,0,0,1-.358-5.993c.064-1.711.145-3.713,1.181-5.16a5.648,5.648,0,0,1,8.011-.841,2.463,2.463,0,0,0,3.394,0,2.421,2.421,0,0,0,0-3.394Z"/><path class="b" d="M60.42,116.733c2.963,17.1,12.223,33.838,28.061,42.094a38.055,38.055,0,0,0,13.768,4.126,2.416,2.416,0,0,0,2.4-2.4,2.454,2.454,0,0,0-2.4-2.4C85.89,156.458,73.14,141.8,68,127.059a72.977,72.977,0,0,1-2.946-11.6,2.42,2.42,0,0,0-2.952-1.676,2.455,2.455,0,0,0-1.677,2.952Z"/><path class="b" d="M109.046,91.2c0,1.526.15,3.049.153,4.574a2.477,2.477,0,0,0,.7,1.7,2.4,2.4,0,0,0,3.394,0,2.494,2.494,0,0,0,.7-1.7c0-1.525-.15-3.048-.153-4.574a2.477,2.477,0,0,0-.7-1.7,2.4,2.4,0,0,0-3.394,0,2.489,2.489,0,0,0-.7,1.7Z"/><path class="b" d="M117.832,91.2c0,1.526.149,3.049.152,4.574a2.482,2.482,0,0,0,.7,1.7,2.4,2.4,0,0,0,3.394,0,2.484,2.484,0,0,0,.7-1.7c0-1.525-.15-3.048-.152-4.574a2.477,2.477,0,0,0-.7-1.7,2.4,2.4,0,0,0-3.395,0,2.488,2.488,0,0,0-.7,1.7Z"/><path class="b" d="M157.225,27.218a26.98,26.98,0,0,1,8,6.392,51.689,51.689,0,0,1,7.493,10.54c4.472,8.3,6.187,18.236,5.905,27.6a50.5,50.5,0,0,1-2.371,14.089c-.955,2.945,3.678,4.207,4.628,1.276,3.035-9.356,3.205-19.553,1.456-29.175A55.065,55.065,0,0,0,169.764,31.5c-2.821-3.271-6.166-6.56-10.117-8.428a2.468,2.468,0,0,0-3.283.861,2.421,2.421,0,0,0,.861,3.284Z"/><path class="b" d="M74.2,17.715C64.442,21.373,57.192,30.146,52.735,39.3,48.354,48.3,46.8,58.369,47,68.317a98.871,98.871,0,0,0,2.786,20.849c.715,3,5.344,1.732,4.628-1.276-4.5-18.888-4.2-40.569,8.84-56.162,3.3-3.941,7.344-7.557,12.219-9.384a2.468,2.468,0,0,0,1.676-2.953A2.42,2.42,0,0,0,74.2,17.715Z"/><path class="b" d="M151.31,18.21A41.758,41.758,0,0,0,138.643,6.661,48.4,48.4,0,0,0,121.431.887c-12.571-1.851-26.22-.9-38.117,3.731A56.648,56.648,0,0,0,63.728,17.305c-2.189,2.186,1.2,5.581,3.394,3.394,8.874-8.861,20.625-13.835,33-15.278,11.213-1.308,23.649-.9,33.931,4.219a36.377,36.377,0,0,1,13.113,10.992,2.472,2.472,0,0,0,3.284.861,2.417,2.417,0,0,0,.861-3.283Z"/><path class="b" d="M126.721,50.689c-5.686,3.489-11.285,7.213-17.19,10.327-.436.23-.877.446-1.32.66-.095.044-.191.087-.287.128.355-.147.422-.178.2-.09.007.012-.371.1-.39.12.376-.4,2.343.831,1.886.493.208.154.3.492.1.085-.235-.469-.5-.922-.723-1.4-.579-1.22-.9-2-1.391-3.273-.217-.562-.431-1.127-.624-1.7-.1-.292-.373-1.569-.228-.473a2.441,2.441,0,0,0-4.1-1.7C88.573,64.922,73.891,75.085,60.8,87.353c-2.259,2.117,1.14,5.506,3.394,3.4,13.091-12.267,27.775-22.432,41.856-33.48l-4.1-1.7a23.874,23.874,0,0,0,2.065,5.994c.689,1.619,1.524,4.4,3.462,4.918,1.74.464,3.758-.923,5.206-1.716,2.486-1.36,4.909-2.836,7.327-4.311,3.052-1.86,6.085-3.753,9.131-5.622,2.629-1.613.22-5.767-2.422-4.145Z"/><path class="b" d="M137.217,58.918a45.872,45.872,0,0,1,17.989,12.918,78.019,78.019,0,0,1,11.967,18.8,2.418,2.418,0,0,0,3.283.861,2.454,2.454,0,0,0,.861-3.283,81.9,81.9,0,0,0-13-20.092,54.709,54.709,0,0,0-9.22-8.364,48.85,48.85,0,0,0-10.607-5.47,2.417,2.417,0,0,0-2.952,1.676,2.456,2.456,0,0,0,1.676,2.952Z"/><path class="e" d="M230.494,315.681c-.629-12.753-1.2-24.737-1.34-28.881-.444-9.926-2.405-35.3-3.642-50.148-.889-10.666-2.284-26.534-8.136-34.518-3.8-5.184-12.668-11.434-18.222-14.667-8.6-5.005-23.314-11.29-37.351-15.962-4.484,7.137-29.9,15.287-48.016,15.242-17.441-.043-36.107-6.489-46.027-12.978l-2.876-1.275c-2.255.755-4.315,1.447-4.676,1.594-16.3,6.638-34.155,13.184-41.72,28.009A133.133,133.133,0,0,0,9,225.119c-3.308,10.06-7.249,29.108-6.562,39.41,1.047,15.717,3.538,24.172,11.922,31.952,8.142,7.557,17.028,7.639,25.49,4.069,0,4.769.019,9.438.038,13.9"/><path class="b" d="M37.455,302.6q.009,5.925.036,11.849a2.4,2.4,0,1,0,4.8,0q-.025-5.925-.036-11.849a2.4,2.4,0,0,0-4.8,0Z"/><path class="b" d="M154.738,171.781a230.16,230.16,0,0,1,38.439,15.168A91.871,91.871,0,0,1,207.534,196c4.381,3.391,8.357,7.074,10.486,12.275,2.272,5.552,3.3,11.65,4.03,17.574.676,5.46,1.08,10.951,1.525,16.434.962,11.856,1.888,23.717,2.663,35.587.822,12.588,1.235,25.208,1.856,37.807.152,3.075,4.953,3.093,4.8,0-.57-11.573-.951-23.165-1.661-34.731-.733-11.933-1.669-23.855-2.625-35.771-.448-5.585-.854-11.179-1.459-16.75a92.832,92.832,0,0,0-3.565-18.846,33.019,33.019,0,0,0-3.549-7.811,32.565,32.565,0,0,0-5.858-6.476,87.08,87.08,0,0,0-14.982-10.57,170.387,170.387,0,0,0-17.342-8.231q-10.214-4.3-20.76-7.749-2.529-.825-5.079-1.593c-2.963-.894-4.23,3.737-1.276,4.628Z"/><path class="b" d="M188.705,223.769q-.069,13.5-.18,26.993-.137,20.643-.225,41.287-.045,11.8-.053,23.591c0,3.089,4.8,3.094,4.8,0q0-21.081.14-42.161.1-18.55.237-37.1.043-6.3.081-12.609c.016-3.089-4.784-3.092-4.8,0Z"/><path class="b" d="M66.548,175.841a77.252,77.252,0,0,0,17.166,7.994,101.1,101.1,0,0,0,21.887,4.851c13.386,1.432,27.136-.847,39.825-5.172,5.6-1.91,11.421-4.212,16.01-8.048a2.418,2.418,0,0,0,0-3.394,2.452,2.452,0,0,0-3.394,0c-.17.142-.34.284-.516.42.377-.291-.25.176-.263.184-.411.286-.823.569-1.246.837-1.025.648-2.087,1.237-3.168,1.786a63.286,63.286,0,0,1-7.336,3.109,107.459,107.459,0,0,1-18.164,4.72,84.879,84.879,0,0,1-39.772-3.077A74.994,74.994,0,0,1,68.971,171.7c-2.6-1.688-5.007,2.466-2.423,4.144Z"/><path class="b" d="M59.374,90.056a25.908,25.908,0,0,1,1.588,2.1c.662.945,1.3,1.908,1.918,2.88,1.416,2.218,2.758,4.483,4.073,6.763,2.188,3.8,4.26,7.659,6.405,11.48,1.513,2.694,5.66.277,4.145-2.422-2.2-3.917-4.322-7.875-6.57-11.764a86.324,86.324,0,0,0-8.164-12.433,2.421,2.421,0,0,0-3.395,0,2.453,2.453,0,0,0,0,3.395Z"/><path class="b" d="M167.209,87.917q-6,9-11.907,18.077c-1.057,1.621-2.115,3.243-3.159,4.874-1.669,2.61,2.483,5.02,4.145,2.423,4.381-6.847,8.874-13.626,13.363-20.4.564-.852,1.136-1.7,1.7-2.549a2.4,2.4,0,0,0-4.144-2.422Z"/><path class="c" d="M113.872,108.627c-8.564,0-22.85,1.325-32.115,2.051-1.713.135-5.909.629-7.018,1.9-2.062,2.369-1.279,7.424-1.546,10.3a74.746,74.746,0,0,0,.4,13.779c.618,6.055.918,12.508,4.991,17.231,7.53,8.732,24.979,13.381,36.443,13.381a68.18,68.18,0,0,0,22.431-4.139c6.252-2.284,12.1-6.115,15.368-11.623,3.085-5.194,2.964-10.4,3.626-16.319a62.46,62.46,0,0,0,.238-12.533c-.282-2.865.435-7.544-1.652-9.942-1.109-1.273-4.568-1.865-6.28-2.015C137.9,109.746,123.387,108.627,113.872,108.627Z"/><path class="b" d="M113.872,106.227c-8.3.014-16.6.788-24.87,1.463a105.012,105.012,0,0,0-11.149,1.1,9.209,9.209,0,0,0-4.675,1.952c-1.5,1.434-1.969,3.613-2.189,5.588-.207,1.849-.088,3.706-.142,5.561-.067,2.266-.269,4.5-.211,6.779a131.325,131.325,0,0,0,1.149,13.561c.605,4.641,1.729,9.163,4.718,12.881a29.161,29.161,0,0,0,8.423,6.786,63.857,63.857,0,0,0,49.079,4.886c8.565-2.519,17.482-7.026,21.616-15.4,2.117-4.289,2.553-8.949,2.98-13.644a83.571,83.571,0,0,0,.528-14.68c-.313-3.7.465-8.1-1.824-11.322-2.244-3.156-6.931-3.306-10.431-3.606-9.044-.776-18.106-1.49-27.18-1.8-1.94-.065-3.881-.107-5.822-.109-3.089,0-3.094,4.8,0,4.8,8.184.011,16.371.592,24.528,1.216,3.638.278,7.9.411,11.194.955a17.889,17.889,0,0,1,2.365.534,3.591,3.591,0,0,1,1.383.676c.829,1.089.811,2.862.846,4.163.106,4,.433,8,.237,12.01-.114,2.325-.393,4.633-.605,6.95-.185,2.016-.323,4.043-.687,6.037a19.433,19.433,0,0,1-5.309,10.475,29.119,29.119,0,0,1-9.882,6.343,61.078,61.078,0,0,1-25.169,4.425,61.9,61.9,0,0,1-20.508-4.648c-6.139-2.546-12.616-6.408-14.659-13.127-1.151-3.783-1.374-7.8-1.743-11.716a93.624,93.624,0,0,1-.226-13.133c.077-1.722-.041-3.447.088-5.168a7.915,7.915,0,0,1,.363-1.977,3.417,3.417,0,0,1,.379-.791c.117-.187-.147.053.162-.114,2.2-1.191,5.758-1.106,8.506-1.33,7.942-.648,15.888-1.361,23.852-1.672,1.627-.064,3.256-.105,4.885-.108C116.96,111.021,116.966,106.221,113.872,106.227Z"/><path class="b" d="M132.964,102.043c3.524-.243,7.022-.8,10.543-1.094a2.4,2.4,0,0,0,0-4.8c-3.521.3-7.019.851-10.543,1.094a2.4,2.4,0,0,0,0,4.8Z"/><path class="b" d="M97.9,97.243c-3.525-.243-7.023-.8-10.543-1.094a2.412,2.412,0,0,0-2.4,2.4,2.461,2.461,0,0,0,2.4,2.4c3.52.3,7.018.851,10.543,1.094a2.412,2.412,0,0,0,2.4-2.4,2.459,2.459,0,0,0-2.4-2.4Z"/><path class="c" d="M72.779,202.532l.391-1.146c1.176-2.576,2.975-7.671,3.8-9.955a65.519,65.519,0,0,1,3.905-8.338c2.614-4.957,3.644-10.457,5.439-15.661,1.953-5.658,4.952-10.861,10.217-13.923,5.662-3.292,11.145-2,17.491-.879,3.649.646,9.974,3.872,10.238,7.914.087,1.347-1.226,4.034-.455,5.617l.738,1.515a3.748,3.748,0,0,1,2.9.431c2.776,1.746,2.072,6.883,2.467,9.728.683,4.928-2.864,8.482-4.7,9.965-2.454,2.106-6.955,3.2-9.363,5.3a90.789,90.789,0,0,1-8.191,6.707c-2.453,1.683-5.712,3.555-9.325,2.82-.117,1.365-1.45,6.275-2.181,7.283,0,0-.27.531-.673,1.225C92.439,210.567,73.289,202.925,72.779,202.532Z"/><path class="b" d="M76.117,200c1.363-3.016,2.416-6.136,3.658-9.2,1.135-2.8,2.724-5.378,3.973-8.123,2.526-5.552,3.45-11.652,5.889-17.224,2.012-4.6,5.338-9.221,10.292-10.9a17.955,17.955,0,0,1,8.138-.516,27.6,27.6,0,0,1,7.2,1.471,16.094,16.094,0,0,1,5.9,4.329,5.4,5.4,0,0,1,.7,1.073c-.17-.35.019.058.05.162a9.05,9.05,0,0,1,.207.962,27.78,27.78,0,0,1,.383,4.2c.072,3.084,4.872,3.095,4.8,0-.061-2.561-.133-5.671-1.411-7.966a16.892,16.892,0,0,0-5.577-5.433A18.963,18.963,0,0,0,112.915,150a39.178,39.178,0,0,0-9.683-.942c-6.514.475-11.9,4.33-15.43,9.688-3.483,5.29-4.746,11.535-6.682,17.466-1.188,3.643-3.057,6.869-4.675,10.321-1.688,3.6-2.835,7.419-4.473,11.043a2.473,2.473,0,0,0,.861,3.283A2.419,2.419,0,0,0,76.117,200Z"/><path class="b" d="M106.36,163.659c.936.65,1.879,1.29,2.8,1.963.241.176.475.363.718.536-.558-.395-.119-.093-.011-.007s.235.187.351.282c.464.377.917.769,1.351,1.18a16.162,16.162,0,0,1,1.214,1.269,1.725,1.725,0,0,0,.274.331l-.2-.261c.057.075.114.151.169.227.164.227.32.46.466.7s.276.476.4.723c.043.086.194.47.049.085-.152-.4.024.073.054.155a7.086,7.086,0,0,1,.229.779c.031.132.044.271.081.4q.047.283-.037-.3c.01.091.019.182.026.274a2.4,2.4,0,0,0,4.8,0c-.506-5.937-5.848-9.385-10.306-12.48a2.414,2.414,0,0,0-3.284.861,2.462,2.462,0,0,0,.861,3.283Z"/><path class="b" d="M102.174,171.234a16.737,16.737,0,0,1,5.32,3.624c1.509,1.36,3.366,2.729,3.721,4.863a7.439,7.439,0,0,1-.771,4.733A2.235,2.235,0,0,1,109,185.539c.163-.015-.283,0-.333-.018a1.934,1.934,0,0,1-.441-.261c-.3-.2.026.278-.073-.09-.094-.349.035.318-.092-.329-.054-.276-.118-.549-.168-.825a15.608,15.608,0,0,0-.418-2,6.9,6.9,0,0,0-3.361-4.133c-2.605-1.358-5.24-.684-6.325,2.172-.754,1.985-.22,4.23-1.051,6.172-.7,1.64-2.289,2.974-3.522,4.224-1.812,1.836-3.7,3.6-5.6,5.338-2.283,2.091,1.118,5.478,3.394,3.394,3.181-2.911,6.857-5.934,9.29-9.543,1.512-2.244,1.394-4.543,1.778-7.095.033-.217.127-.435.147-.65l.054-.186q.364-.746-.982.171a9.735,9.735,0,0,0,.924.456,1.825,1.825,0,0,1,.691,1.179,14.027,14.027,0,0,0,1.191,4.236,5.809,5.809,0,0,0,6.173,2.417c4.905-1.212,6.468-7.354,5.558-11.737-.607-2.922-2.678-4.908-4.8-6.831a22.973,22.973,0,0,0-7.588-5,2.423,2.423,0,0,0-2.952,1.676,2.449,2.449,0,0,0,1.676,2.953Z"/><path class="b" d="M122.95,173.826a4.972,4.972,0,0,1,.2-1.966,3.859,3.859,0,0,1,.582-1,5.32,5.32,0,0,0,.5-.447,3.678,3.678,0,0,1,.448-.264c.037-.019.42-.172.128-.056a2.2,2.2,0,0,1,.48-.131c-.105.013-.41.027.088,0s.728.049.905.255a6.686,6.686,0,0,1,1.014,3.751c.1,1.664.3,3.378.308,5.04.018,3-2.108,5.813-4.535,7.419a49.651,49.651,0,0,1-5.474,2.764,26.054,26.054,0,0,0-5.51,4.03,55.738,55.738,0,0,1-6.55,5.125c-1.93,1.233-4.2,2.384-6.559,1.969a2.452,2.452,0,0,0-3.038,2.314c.032-.286-.018.051-.039.149-.044.207-.093.412-.145.617-.13.509-.283,1.013-.444,1.514q-.409,1.274-.9,2.516a2.418,2.418,0,0,0,1.677,2.953,2.457,2.457,0,0,0,2.952-1.676,24.017,24.017,0,0,0,1.7-6.073L97.7,204.942c6.3,1.108,11.511-3,16.044-6.831,2.157-1.824,4.048-3.7,6.61-4.941a31.406,31.406,0,0,0,6.561-3.673c3.594-2.952,5.871-7.183,5.372-11.9-.425-4.021.32-9.632-4.058-11.791a6.677,6.677,0,0,0-7.12,1,8.351,8.351,0,0,0-2.959,7.028c.166,3.072,4.967,3.092,4.8,0Z"/><path class="e" d="M53,221.605c7.474-10.362,14.661-20.5,17.264-24.369.686.265,1.194.452,1.194.452,2.487.916,30.554,12.606,33.8,14.349-3.219,6.438-8.642,17.622-14.949,29.363Z"/><path class="b" d="M34.36,250.671c4.9-5.788,9.252-12.093,13.718-18.211q9.057-12.407,17.934-24.942c2.128-3.007,4.263-6.011,6.321-9.065l-2.71,1.1c9.937,3.732,19.432,7.915,29.07,12.117,1.79.78,3.625,1.518,5.35,2.436l-.861-3.284c-8.678,17.364-17.17,34.9-27.652,51.268A135.5,135.5,0,0,1,58,284.282c-6.521,6.617-14.331,13.327-23.582,15.552a18.951,18.951,0,0,1-12.185-.9,27.08,27.08,0,0,1-10.344-8.724c-5.562-7.6-6.855-17.793-7.109-27.049A79.628,79.628,0,0,1,6,248.552q1.251-7.881,3.247-15.623a138.25,138.25,0,0,1,11.477-29.937C25.6,193.736,34.74,188.021,43.9,183.618a214.014,214.014,0,0,1,24.638-9.82c1.139-.383,2.3-.73,3.419-1.177a2.474,2.474,0,0,0,1.676-2.952,2.416,2.416,0,0,0-2.952-1.676c-3.045,1.217-6.243,2.113-9.347,3.165-4.383,1.486-8.656,3.384-12.913,5.194C38.4,180.616,27.941,185.7,20.85,194.26c-3.7,4.46-6.151,9.762-8.485,15.026a155.5,155.5,0,0,0-5.932,15.986A141.868,141.868,0,0,0,.157,257.238a75.881,75.881,0,0,0,.7,15.756,49.732,49.732,0,0,0,3.891,14.564c4.084,8.778,12.509,16.456,22.364,17.544,10.117,1.117,19.643-4.693,27.136-10.855a117.775,117.775,0,0,0,20.034-21.792A249.783,249.783,0,0,0,91.43,244.368c4.75-8.76,9.223-17.664,13.647-26.591q1.122-2.267,2.25-4.529a2.443,2.443,0,0,0-.861-3.284c-4.086-2.175-8.523-3.817-12.778-5.623q-8.661-3.677-17.362-7.261c-1.8-.741-3.6-1.468-5.427-2.153a2.432,2.432,0,0,0-2.71,1.1c-4.382,6.5-8.995,12.855-13.565,19.226-5.853,8.16-11.735,16.3-17.741,24.35q-1.814,2.43-3.655,4.837c-.359.469.2-.257-.14.181l-.34.438q-.333.428-.67.852c-.365.459-.733.915-1.112,1.363a2.464,2.464,0,0,0,0,3.394,2.421,2.421,0,0,0,3.394,0Z"/></svg>