<?xml version="1.0" standalone="no"?>
<!DOCTYPE svg PUBLIC "-//W3C//DTD SVG 20010904//EN"
 "http://www.w3.org/TR/2001/REC-SVG-20010904/DTD/svg10.dtd">
<svg version="1.0" xmlns="http://www.w3.org/2000/svg"
 width="780.000000pt" height="486.000000pt" viewBox="0 0 780.000000 486.000000"
 preserveAspectRatio="xMidYMid meet">

<g transform="translate(0.000000,486.000000) scale(0.100000,-0.100000)"
fill="#000000" stroke="none">
<path d="M2598 3418 c-2 -402 0 -732 4 -734 4 -3 17 0 29 7 19 10 21 9 16 -5
-4 -9 -3 -16 2 -16 11 0 15 1046 4 1062 -12 20 -12 132 1 140 8 6 7 8 -1 8 -7
0 -13 5 -13 11 0 5 5 7 11 4 7 -5 9 33 7 123 l-3 131 -27 -1 -28 -1 -2 -729z"/>
<path d="M2661 3852 c-7 -13 -10 -26 -7 -30 3 -3 6 0 6 6 0 9 34 12 113 12 90
0 114 3 114 14 0 10 -21 14 -89 15 -56 1 -88 -2 -88 -8 0 -15 -27 -14 -32 1
-3 8 -10 4 -17 -10z"/>
<path d="M2853 3733 l-33 -4 0 -165 0 -164 44 0 45 0 5 -42 c18 -141 38 -436
33 -508 -5 -83 -34 -186 -71 -259 -10 -18 -15 -35 -12 -38 9 -9 54 100 78 185
18 68 20 94 15 222 -4 80 -11 195 -17 255 -18 201 -21 180 28 183 l42 3 0 170
0 169 -62 -2 c-35 0 -78 -3 -95 -5z"/>
<path d="M4079 3708 c-7 -13 -17 -26 -23 -30 -6 -4 -64 -8 -128 -8 l-118 0 0
-45 0 -45 590 0 590 0 0 45 0 45 -118 0 c-65 0 -121 3 -125 6 -3 4 1 17 10 30
14 22 14 24 -1 24 -9 0 -16 -8 -16 -17 -1 -17 -1 -17 -11 0 -9 16 -36 17 -324
17 l-314 0 -12 -22z m81 2 c0 -5 -7 -10 -16 -10 -8 0 -12 5 -9 10 3 6 10 10
16 10 5 0 9 -4 9 -10z m433 -27 c-78 -2 -208 -2 -290 0 -81 1 -17 3 142 3 160
0 226 -2 148 -3z"/>
<path d="M4258 3393 c-27 -72 -38 -89 -56 -91 -31 -5 -22 -26 12 -30 27 -3 40
16 70 103 10 27 14 19 71 -135 25 -68 49 -128 52 -133 4 -6 21 27 38 74 l33
84 45 0 c56 0 79 17 54 42 -13 14 -21 15 -39 5 -13 -6 -36 -13 -53 -14 -25 -3
-32 -10 -50 -55 -11 -29 -23 -53 -26 -53 -3 0 -13 21 -22 48 -18 55 -86 235
-91 240 -2 1 -19 -37 -38 -85z"/>
<path d="M3792 3150 c0 -14 2 -19 5 -12 2 6 2 18 0 25 -3 6 -5 1 -5 -13z"/>
<path d="M3761 3098 c-19 -31 -21 -186 -3 -215 8 -13 19 -23 24 -23 6 0 4 7
-3 17 -12 14 -12 16 1 11 8 -3 14 -13 14 -22 -1 -9 5 -16 14 -16 8 0 13 -3 9
-6 -3 -4 -20 -1 -38 5 -28 9 -30 9 -18 -5 11 -13 48 -15 277 -12 262 3 265 3
280 26 l14 22 -252 0 c-236 0 -252 -1 -245 -17 4 -13 0 -11 -16 5 -19 22 -21
34 -20 121 3 126 -8 157 -38 109z m-4 -50 c-3 -8 -6 -5 -6 6 -1 11 2 17 5 13
3 -3 4 -12 1 -19z m30 -133 c-4 -8 -12 -15 -19 -14 -10 0 -10 2 0 6 6 2 12 12
12 21 0 8 3 13 6 9 4 -3 4 -13 1 -22z"/>
<path d="M1876 2798 c-6 -26 -17 -159 -21 -235 l-2 -53 71 0 c39 0 96 -6 126
-13 l56 -13 -2 45 c-1 36 -7 50 -32 73 -18 15 -44 30 -59 33 -68 15 -98 31
-108 58 -11 33 0 44 57 53 46 8 41 17 -22 49 -60 30 -59 30 -64 3z"/>
<path d="M4817 2814 c-4 -4 -6 -122 -5 -263 l3 -256 2 248 c2 158 7 247 13
247 7 0 10 -101 10 -291 -1 -160 1 -294 4 -297 3 -3 6 136 6 309 0 180 -4 308
-9 300 -6 -9 -10 -10 -12 -2 -3 7 -8 9 -12 5z"/>
<path d="M4861 2804 c0 -11 3 -14 6 -6 3 7 2 16 -1 19 -3 4 -6 -2 -5 -13z"/>
<path d="M4864 2485 c0 -165 2 -234 3 -153 2 81 2 216 0 300 -1 84 -3 18 -3
-147z"/>
<path d="M4818 2263 c5 -21 7 -23 10 -9 2 10 0 22 -6 28 -6 6 -7 0 -4 -19z"/>
<path d="M4810 2213 c0 -13 5 -23 10 -23 13 0 13 11 0 30 -8 12 -10 11 -10 -7z"/>
<path d="M2330 1431 c0 -4 63 -36 139 -69 l139 -62 123 0 124 0 -3 -482 c-1
-266 0 -493 3 -506 3 -12 14 -31 25 -42 20 -20 39 -20 1399 -20 759 0 1387 3
1396 6 44 17 45 38 45 536 0 260 0 488 0 506 l0 32 244 0 244 0 16 47 c9 26
16 50 16 55 0 4 -880 8 -1955 8 -1075 0 -1955 -4 -1955 -9z"/>
</g>
</svg>
