<?xml version="1.0" standalone="no"?>
<!DOCTYPE svg PUBLIC "-//W3C//DTD SVG 20010904//EN"
 "http://www.w3.org/TR/2001/REC-SVG-20010904/DTD/svg10.dtd">
<svg version="1.0" xmlns="http://www.w3.org/2000/svg"
 width="512.000000pt" height="512.000000pt" viewBox="0 0 512.000000 512.000000"
 preserveAspectRatio="xMidYMid meet">

<g transform="translate(0.000000,512.000000) scale(0.100000,-0.100000)"
fill="#000000" stroke="none">
<path d="M2395 5114 c-86 -7 -216 -24 -308 -40 l-87 -16 30 -34 c16 -19 40
-54 52 -77 23 -42 23 -47 28 -547 l5 -505 139 435 c76 239 147 451 157 471 25
51 110 124 166 143 146 50 305 -20 371 -162 45 -99 40 -135 -67 -467 -52 -159
-109 -337 -127 -394 l-33 -104 217 215 c133 132 234 225 262 239 36 19 61 24
125 24 68 0 89 -4 138 -29 109 -53 180 -186 162 -305 -12 -79 -40 -127 -136
-226 l-92 -95 584 0 c648 0 649 0 745 -64 65 -44 118 -119 139 -201 23 -89 23
-1591 0 -1680 -21 -82 -74 -157 -139 -201 -93 -62 -112 -64 -591 -64 l-430 0
-135 -192 c-198 -281 -217 -299 -315 -299 -63 0 -101 17 -143 65 -44 50 -52
91 -52 269 l0 157 -210 0 -210 0 0 -716 0 -715 43 5 c23 3 76 8 117 11 551 42
1116 302 1534 705 734 708 975 1761 625 2730 -53 145 -173 379 -267 520 -415
623 -1047 1019 -1792 1125 -105 15 -411 26 -505 19z"/>
<path d="M1404 4841 c-61 -32 -129 -68 -150 -81 -21 -13 -40 -24 -41 -25 -1 0
10 -32 26 -71 15 -38 81 -219 147 -403 l119 -333 5 483 c3 266 5 485 5 486 0
1 -50 -24 -111 -56z"/>
<path d="M644 4253 c-152 -172 -273 -353 -374 -558 -59 -119 -130 -290 -130
-313 0 -3 19 13 42 35 85 83 213 111 318 70 25 -9 162 -100 305 -201 143 -101
261 -183 263 -181 13 13 -52 356 -97 512 -33 115 -239 694 -250 706 -5 5 -40
-27 -77 -70z"/>
<path d="M62 3110 c-44 -209 -55 -316 -55 -545 -1 -434 85 -796 280 -1178 202
-395 541 -762 925 -1000 l93 -58 3 873 c2 630 0 888 -8 927 -9 42 -22 63 -58
100 -26 26 -275 209 -554 405 -540 381 -553 392 -579 491 -6 22 -15 51 -18 65
-6 19 -13 0 -29 -80z"/>
<path d="M2283 2986 l-28 -24 0 -402 0 -402 28 -24 c35 -30 49 -30 84 0 l28
24 3 171 3 171 189 0 190 0 2 -176 3 -177 26 -20 c22 -15 33 -17 55 -10 53 17
54 27 54 443 0 416 -1 426 -54 443 -22 7 -33 5 -55 -10 l-26 -20 -3 -167 -2
-166 -190 0 -189 0 -3 161 -3 161 -28 24 c-35 30 -49 30 -84 0z"/>
<path d="M3675 2985 l-25 -24 0 -399 c0 -379 1 -401 19 -423 18 -23 25 -24
173 -27 144 -3 155 -2 181 18 19 16 27 30 27 54 0 57 -21 66 -148 66 l-112 0
0 355 0 356 -25 24 c-31 32 -59 32 -90 0z"/>
<path d="M4166 2989 l-26 -21 2 -410 3 -411 27 -20 c23 -17 31 -18 57 -8 42
18 51 54 51 197 l0 124 83 0 c156 0 247 47 304 159 27 51 33 74 33 126 0 128
-97 248 -221 274 -28 6 -103 11 -168 11 -105 0 -121 -2 -145 -21z m332 -148
c64 -45 81 -129 39 -192 -34 -52 -78 -69 -174 -69 l-83 0 0 146 0 146 93 -4
c77 -3 99 -8 125 -27z"/>
<path d="M3060 2980 c-19 -19 -20 -33 -20 -424 l0 -405 26 -20 c25 -19 40 -21
201 -21 171 0 174 0 198 25 30 29 32 64 5 93 -19 21 -30 22 -155 22 l-135 0 0
120 0 119 126 3 c125 3 127 3 147 30 17 23 18 31 8 56 -18 43 -49 52 -171 52
l-110 0 0 115 0 115 130 0 c126 0 132 1 155 25 31 30 32 65 2 93 -22 21 -32
22 -205 22 -169 0 -183 -1 -202 -20z"/>
</g>
</svg>
